# xmcd
# 
# Track frame offsets:
#     150
#     17642
#     31436
#     45768
# 
# Disc length: 874
# 
# Revision: 0
# Processed by: cddbd v1.5.2PL0 Copyright (c) Steve Scherf et al.
# Submitted via: fre:ac v1.0.17
# 
DISCID=21036804
DTITLE=めありー - １３月のメリー02
DYEAR=2016
DGENRE=
TTITLE0=サンダルリープ
TTITLE1=エアリーフォール
TTITLE2=秘密
TTITLE3=November
EXTD=
EXTT0=
EXTT1=
EXTT2=
EXTT3=
PLAYORDER=
